<mxfile host="app.diagrams.net" modified="2023-05-03T21:29:11.397Z" agent="Mozilla/5.0 (Macintosh; Intel Mac OS X 10_15_7) AppleWebKit/605.1.15 (KHTML, like Gecko) Version/16.4 Safari/605.1.15" etag="PHxG9zqAHDd1j1Yy1rPa" version="21.2.4" type="device">
  <diagram name="Page-1" id="Oicy-1N8rJkARrArQUpB">
    <mxGraphModel dx="962" dy="551" grid="1" gridSize="10" guides="1" tooltips="1" connect="1" arrows="1" fold="1" page="1" pageScale="1" pageWidth="827" pageHeight="1169" math="0" shadow="0">
      <root>
        <mxCell id="0" />
        <mxCell id="1" parent="0" />
        <mxCell id="XexURc1zLydyl_V_InYB-9" value="" style="rounded=0;whiteSpace=wrap;html=1;" vertex="1" parent="1">
          <mxGeometry x="300" y="50" width="190" height="300" as="geometry" />
        </mxCell>
        <mxCell id="XexURc1zLydyl_V_InYB-4" value="" style="edgeStyle=orthogonalEdgeStyle;rounded=0;orthogonalLoop=1;jettySize=auto;html=1;" edge="1" parent="1" source="XexURc1zLydyl_V_InYB-1" target="XexURc1zLydyl_V_InYB-3">
          <mxGeometry relative="1" as="geometry" />
        </mxCell>
        <mxCell id="XexURc1zLydyl_V_InYB-1" value="Configuration UART" style="rounded=0;whiteSpace=wrap;html=1;" vertex="1" parent="1">
          <mxGeometry x="354" y="80" width="120" height="60" as="geometry" />
        </mxCell>
        <mxCell id="XexURc1zLydyl_V_InYB-2" value="LoRa_send" style="text;html=1;strokeColor=none;fillColor=none;align=center;verticalAlign=middle;whiteSpace=wrap;rounded=0;" vertex="1" parent="1">
          <mxGeometry x="380" y="50" width="60" height="30" as="geometry" />
        </mxCell>
        <mxCell id="XexURc1zLydyl_V_InYB-7" value="" style="edgeStyle=orthogonalEdgeStyle;rounded=0;orthogonalLoop=1;jettySize=auto;html=1;" edge="1" parent="1" source="XexURc1zLydyl_V_InYB-3" target="XexURc1zLydyl_V_InYB-6">
          <mxGeometry relative="1" as="geometry" />
        </mxCell>
        <mxCell id="XexURc1zLydyl_V_InYB-3" value="Configuration module LoRa" style="rounded=0;whiteSpace=wrap;html=1;" vertex="1" parent="1">
          <mxGeometry x="354" y="160" width="120" height="60" as="geometry" />
        </mxCell>
        <mxCell id="XexURc1zLydyl_V_InYB-8" style="edgeStyle=orthogonalEdgeStyle;rounded=0;orthogonalLoop=1;jettySize=auto;html=1;exitX=0.5;exitY=1;exitDx=0;exitDy=0;" edge="1" parent="1" source="XexURc1zLydyl_V_InYB-6">
          <mxGeometry relative="1" as="geometry">
            <mxPoint x="414" y="230" as="targetPoint" />
            <Array as="points">
              <mxPoint x="414" y="330" />
              <mxPoint x="310" y="330" />
              <mxPoint x="310" y="230" />
            </Array>
          </mxGeometry>
        </mxCell>
        <mxCell id="XexURc1zLydyl_V_InYB-6" value="Envoi d&#39;un message + compteur" style="rounded=0;whiteSpace=wrap;html=1;" vertex="1" parent="1">
          <mxGeometry x="354" y="250" width="120" height="60" as="geometry" />
        </mxCell>
      </root>
    </mxGraphModel>
  </diagram>
</mxfile>
